<svg width="36" height="36" viewBox="0 0 36 36" fill="none" xmlns="http://www.w3.org/2000/svg">
<rect width="36" height="36" rx="18" fill="#81B2CA"/>
<path d="M18.2008 11.28C21.7308 11.28 24.6308 13.89 25.1208 17.28H27.2008L23.7008 21.28L20.2008 17.28H22.5208C22.2969 16.3012 21.7479 15.4272 20.9633 14.8006C20.1787 14.174 19.2049 13.8319 18.2008 13.83C16.7508 13.83 15.4708 14.54 14.6608 15.61L12.9508 13.66C13.6055 12.9118 14.4127 12.3124 15.3182 11.9019C16.2237 11.4914 17.2066 11.2794 18.2008 11.28ZM17.8008 24.72C14.2808 24.72 11.3708 22.11 10.8808 18.72H8.80078L12.3008 14.72C13.4708 16.05 14.6308 17.39 15.8008 18.72H13.4808C13.7047 19.6988 14.2537 20.5729 15.0383 21.1994C15.8229 21.826 16.7967 22.1682 17.8008 22.17C19.2508 22.17 20.5308 21.46 21.3408 20.39L23.0508 22.34C22.3969 23.0892 21.5899 23.6894 20.6842 24.1C19.7785 24.5106 18.7952 24.722 17.8008 24.72Z" fill="white"/>
</svg>
