<svg width="43" height="41" viewBox="0 0 43 41" fill="none" xmlns="http://www.w3.org/2000/svg">
<ellipse cx="20" cy="19.2879" rx="20" ry="18.7879" fill="#AA1CB7"/>
<path fill-rule="evenodd" clip-rule="evenodd" d="M14 15.25C13.2707 15.25 12.5712 15.5397 12.0555 16.0555C11.5397 16.5712 11.25 17.2707 11.25 18V27C11.25 27.7293 11.5397 28.4288 12.0555 28.9445C12.5712 29.4603 13.2707 29.75 14 29.75H28C28.7293 29.75 29.4288 29.4603 29.9445 28.9445C30.4603 28.4288 30.75 27.7293 30.75 27V18C30.75 17.2707 30.4603 16.5712 29.9445 16.0555C29.4288 15.5397 28.7293 15.25 28 15.25H14ZM25.5 21.25C25.1685 21.25 24.8505 21.3817 24.6161 21.6161C24.3817 21.8505 24.25 22.1685 24.25 22.5C24.25 22.8315 24.3817 23.1495 24.6161 23.3839C24.8505 23.6183 25.1685 23.75 25.5 23.75C25.8315 23.75 26.1495 23.6183 26.3839 23.3839C26.6183 23.1495 26.75 22.8315 26.75 22.5C26.75 22.1685 26.6183 21.8505 26.3839 21.6161C26.1495 21.3817 25.8315 21.25 25.5 21.25Z" fill="white"/>
<path d="M25.485 12.0689C25.7811 11.99 26.0913 11.9802 26.3918 12.0402C26.6923 12.1002 26.9749 12.2285 27.218 12.4151C27.461 12.6017 27.6579 12.8417 27.7935 13.1165C27.9291 13.3912 27.9998 13.6935 28 13.9999H18L25.485 12.0689Z" fill="white"/>
</svg>
