<svg width="40" height="40" viewBox="0 0 40 40" fill="none" xmlns="http://www.w3.org/2000/svg">
<rect width="40" height="40" rx="20" fill="white"/>
<path d="M12.2857 13H18.7143C19.0553 13 19.3823 13.1475 19.6234 13.4101C19.8645 13.6726 20 14.0287 20 14.4C20 14.7713 19.8645 15.1274 19.6234 15.3899C19.3823 15.6525 19.0553 15.8 18.7143 15.8H12.2857C11.9447 15.8 11.6177 15.6525 11.3766 15.3899C11.1355 15.1274 11 14.7713 11 14.4C11 14.0287 11.1355 13.6726 11.3766 13.4101C11.6177 13.1475 11.9447 13 12.2857 13ZM21.2857 24.2H27.7143C28.0553 24.2 28.3823 24.3475 28.6234 24.6101C28.8645 24.8726 29 25.2287 29 25.6C29 25.9713 28.8645 26.3274 28.6234 26.5899C28.3823 26.8525 28.0553 27 27.7143 27H21.2857C20.9447 27 20.6177 26.8525 20.3766 26.5899C20.1355 26.3274 20 25.9713 20 25.6C20 25.2287 20.1355 24.8726 20.3766 24.6101C20.6177 24.3475 20.9447 24.2 21.2857 24.2ZM12.2857 18.6H27.7143C28.0553 18.6 28.3823 18.7475 28.6234 19.0101C28.8645 19.2726 29 19.6287 29 20C29 20.3713 28.8645 20.7274 28.6234 20.9899C28.3823 21.2525 28.0553 21.4 27.7143 21.4H12.2857C11.9447 21.4 11.6177 21.2525 11.3766 20.9899C11.1355 20.7274 11 20.3713 11 20C11 19.6287 11.1355 19.2726 11.3766 19.0101C11.6177 18.7475 11.9447 18.6 12.2857 18.6Z" fill="#B71C1C"/>
</svg>
