<svg width="43" height="40" viewBox="0 0 43 40" fill="none" xmlns="http://www.w3.org/2000/svg">
<ellipse cx="21.2903" cy="20" rx="21.2903" ry="20" fill="#FF9800"/>
<path fill-rule="evenodd" clip-rule="evenodd" d="M14.7109 14.25C13.9816 14.25 13.2821 14.5397 12.7664 15.0555C12.2507 15.5712 11.9609 16.2707 11.9609 17V26C11.9609 26.7293 12.2507 27.4288 12.7664 27.9445C13.2821 28.4603 13.9816 28.75 14.7109 28.75H28.7109C29.4403 28.75 30.1398 28.4603 30.6555 27.9445C31.1712 27.4288 31.4609 26.7293 31.4609 26V17C31.4609 16.2707 31.1712 15.5712 30.6555 15.0555C30.1398 14.5397 29.4403 14.25 28.7109 14.25H14.7109ZM26.2109 20.25C25.8794 20.25 25.5615 20.3817 25.3271 20.6161C25.0926 20.8505 24.9609 21.1685 24.9609 21.5C24.9609 21.8315 25.0926 22.1495 25.3271 22.3839C25.5615 22.6183 25.8794 22.75 26.2109 22.75C26.5425 22.75 26.8604 22.6183 27.0948 22.3839C27.3292 22.1495 27.4609 21.8315 27.4609 21.5C27.4609 21.1685 27.3292 20.8505 27.0948 20.6161C26.8604 20.3817 26.5425 20.25 26.2109 20.25Z" fill="white"/>
<path d="M26.1959 11.0689C26.492 10.99 26.8023 10.9802 27.1027 11.0402C27.4032 11.1002 27.6859 11.2285 27.9289 11.4151C28.172 11.6017 28.3689 11.8417 28.5045 12.1165C28.6401 12.3912 28.7107 12.6935 28.7109 12.9999H18.7109L26.1959 11.0689Z" fill="white"/>
</svg>
