<svg width="20" height="18" viewBox="0 0 20 18" fill="none" xmlns="http://www.w3.org/2000/svg">
<path fill-rule="evenodd" clip-rule="evenodd" d="M13.0097 5.25C13.0097 5.5605 12.7406 5.8125 12.4091 5.8125C12.0776 5.8125 11.8085 5.5605 11.8085 5.25V4.125C11.8085 2.98575 10.8228 2.0625 9.60639 2.0625C8.39003 2.0625 7.40428 2.98575 7.40428 4.125V5.25C7.40428 5.5605 7.13522 5.8125 6.8037 5.8125C6.47218 5.8125 6.20312 5.5605 6.20312 5.25V4.125C6.20312 2.36475 7.72699 0.9375 9.60639 0.9375C11.4858 0.9375 13.0097 2.36475 13.0097 4.125V5.25Z" fill="#B71C1C"/>
<path fill-rule="evenodd" clip-rule="evenodd" d="M15.489 6.2625L16.1296 15.2625C16.1624 15.729 15.9878 16.1865 15.6475 16.5278C15.3064 16.869 14.8299 17.0625 14.3319 17.0625H4.88758C4.38951 17.0625 3.91305 16.869 3.57192 16.5278C3.23159 16.1865 3.05702 15.729 3.08986 15.2625L3.73047 6.2625C3.79373 5.376 4.58009 4.6875 5.5282 4.6875H13.6912C14.6394 4.6875 15.4257 5.376 15.489 6.2625ZM11.6004 8.0085C11.2465 8.70525 10.4882 9.1875 9.60972 9.1875C8.73128 9.1875 7.97295 8.70525 7.61901 8.0085C7.47727 7.728 7.11853 7.60875 6.81904 7.74225C6.51955 7.875 6.39223 8.211 6.53397 8.4915C7.08009 9.5685 8.25242 10.3125 9.60972 10.3125C10.967 10.3125 12.1393 9.5685 12.6855 8.4915C12.8272 8.211 12.6999 7.875 12.4004 7.74225C12.1009 7.60875 11.7422 7.728 11.6004 8.0085Z" fill="#B71C1C"/>
</svg>
