<svg width="43" height="40" viewBox="0 0 43 40" fill="none" xmlns="http://www.w3.org/2000/svg">
<ellipse cx="21.2903" cy="20" rx="21.2903" ry="20" fill="#03B961"/>
<path d="M21 16.875C21.663 16.875 22.2989 16.6116 22.7678 16.1428C23.2366 15.6739 23.5 15.038 23.5 14.375C23.5 13.712 23.2366 13.0761 22.7678 12.6072C22.2989 12.1384 21.663 11.875 21 11.875C20.337 11.875 19.7011 12.1384 19.2322 12.6072C18.7634 13.0761 18.5 13.712 18.5 14.375C18.5 15.038 18.7634 15.6739 19.2322 16.1428C19.7011 16.6116 20.337 16.875 21 16.875ZM17.25 14.6875C17.25 14.9748 17.1934 15.2592 17.0835 15.5246C16.9736 15.79 16.8124 16.0312 16.6093 16.2343C16.4062 16.4374 16.165 16.5986 15.8996 16.7085C15.6342 16.8184 15.3498 16.875 15.0625 16.875C14.7752 16.875 14.4908 16.8184 14.2254 16.7085C13.96 16.5986 13.7188 16.4374 13.5157 16.2343C13.3126 16.0312 13.1514 15.79 13.0415 15.5246C12.9316 15.2592 12.875 14.9748 12.875 14.6875C12.875 14.1073 13.1055 13.5509 13.5157 13.1407C13.9259 12.7305 14.4823 12.5 15.0625 12.5C15.6427 12.5 16.1991 12.7305 16.6093 13.1407C17.0195 13.5509 17.25 14.1073 17.25 14.6875ZM29.125 14.6875C29.125 14.9748 29.0684 15.2592 28.9585 15.5246C28.8486 15.79 28.6874 16.0312 28.4843 16.2343C28.2812 16.4374 28.04 16.5986 27.7746 16.7085C27.5092 16.8184 27.2248 16.875 26.9375 16.875C26.6502 16.875 26.3658 16.8184 26.1004 16.7085C25.835 16.5986 25.5938 16.4374 25.3907 16.2343C25.1876 16.0312 25.0264 15.79 24.9165 15.5246C24.8066 15.2592 24.75 14.9748 24.75 14.6875C24.75 14.1073 24.9805 13.5509 25.3907 13.1407C25.8009 12.7305 26.3573 12.5 26.9375 12.5C27.5177 12.5 28.0741 12.7305 28.4843 13.1407C28.8945 13.5509 29.125 14.1073 29.125 14.6875ZM16.8606 18.125C16.5048 18.568 16.3114 19.1194 16.3125 19.6875V24.375C16.3125 25.1469 16.4987 25.875 16.8294 26.5169C16.353 26.7673 15.8201 26.8905 15.2822 26.8746C14.7442 26.8586 14.2196 26.7039 13.7589 26.4256C13.2983 26.1473 12.9174 25.7548 12.653 25.286C12.3887 24.8173 12.2498 24.2882 12.25 23.75V19.6875C12.25 19.2731 12.4146 18.8757 12.7076 18.5826C13.0007 18.2896 13.3981 18.125 13.8125 18.125H16.8606ZM25.1706 26.5169C25.5107 25.8541 25.6878 25.1199 25.6875 24.375V19.6875C25.6875 19.0963 25.4825 18.5531 25.1394 18.125H28.1875C28.6019 18.125 28.9993 18.2896 29.2924 18.5826C29.5854 18.8757 29.75 19.2731 29.75 19.6875V23.75C29.7502 24.2882 29.6113 24.8173 29.347 25.286C29.0826 25.7548 28.7017 26.1473 28.2411 26.4256C27.7804 26.7039 27.2558 26.8586 26.7178 26.8746C26.1799 26.8905 25.647 26.7673 25.1706 26.5169ZM18.8125 18.125C18.3981 18.125 18.0007 18.2896 17.7076 18.5826C17.4146 18.8757 17.25 19.2731 17.25 19.6875V24.375C17.25 25.3696 17.6451 26.3234 18.3483 27.0267C19.0516 27.7299 20.0054 28.125 21 28.125C21.9946 28.125 22.9484 27.7299 23.6517 27.0267C24.3549 26.3234 24.75 25.3696 24.75 24.375V19.6875C24.75 19.2731 24.5854 18.8757 24.2924 18.5826C23.9993 18.2896 23.6019 18.125 23.1875 18.125H18.8125Z" fill="white"/>
</svg>
