<svg width="18" height="14" viewBox="0 0 18 14" fill="none" xmlns="http://www.w3.org/2000/svg">
<path d="M1.28571 0H7.71429C8.05528 0 8.3823 0.1475 8.62342 0.410051C8.86454 0.672601 9 1.0287 9 1.4C9 1.7713 8.86454 2.1274 8.62342 2.38995C8.3823 2.6525 8.05528 2.8 7.71429 2.8H1.28571C0.944722 2.8 0.617695 2.6525 0.376577 2.38995C0.135459 2.1274 0 1.7713 0 1.4C0 1.0287 0.135459 0.672601 0.376577 0.410051C0.617695 0.1475 0.944722 0 1.28571 0ZM10.2857 11.2H16.7143C17.0553 11.2 17.3823 11.3475 17.6234 11.6101C17.8645 11.8726 18 12.2287 18 12.6C18 12.9713 17.8645 13.3274 17.6234 13.5899C17.3823 13.8525 17.0553 14 16.7143 14H10.2857C9.94472 14 9.61769 13.8525 9.37658 13.5899C9.13546 13.3274 9 12.9713 9 12.6C9 12.2287 9.13546 11.8726 9.37658 11.6101C9.61769 11.3475 9.94472 11.2 10.2857 11.2ZM1.28571 5.6H16.7143C17.0553 5.6 17.3823 5.7475 17.6234 6.01005C17.8645 6.2726 18 6.6287 18 7C18 7.3713 17.8645 7.7274 17.6234 7.98995C17.3823 8.2525 17.0553 8.4 16.7143 8.4H1.28571C0.944722 8.4 0.617695 8.2525 0.376577 7.98995C0.135459 7.7274 0 7.3713 0 7C0 6.6287 0.135459 6.2726 0.376577 6.01005C0.617695 5.7475 0.944722 5.6 1.28571 5.6Z" fill="#B71C1C"/>
</svg>
